<svg version="1.1" xmlns="http://www.w3.org/2000/svg" width="792" height="612" viewBox="0 0 792 612"><rect x="0" y="0" width="396" height="612" stroke="#222" fill="linen"></rect><rect x="396" y="0" width="396" height="612" stroke="#222" fill="linen"></rect><path d="M792 120 L421 120 L421 592 L792 592" stroke="#222" fill="none" stroke-width="3"></path><path d="M792 214.4 L782 214.4 L782 224.4 L792 219.4" fill="#222" stroke="none"></path><path d="M792 211.4 L782 211.4" fill="none" stroke="#222"></path><path d="M782 227.4 L792 222.4" fill="none" stroke="#222"></path><path d="M792 450.4 L782 450.4" fill="none" stroke="#222"></path><line x1="782" y1="120" x2="782" y2="592" stroke="#222"></line><line x1="754.6153846153846" y1="120" x2="754.6153846153846" y2="592" stroke="#222"></line><line x1="727.2307692307693" y1="120" x2="727.2307692307693" y2="592" stroke="#222"></line><line x1="699.8461538461539" y1="120" x2="699.8461538461539" y2="592" stroke="#222"></line><line x1="672.4615384615386" y1="120" x2="672.4615384615386" y2="592" stroke="#222"></line><line x1="645.0769230769232" y1="120" x2="645.0769230769232" y2="592" stroke="#222"></line><line x1="617.6923076923078" y1="120" x2="617.6923076923078" y2="592" stroke="#222"></line><line x1="590.3076923076925" y1="120" x2="590.3076923076925" y2="592" stroke="#222"></line><line x1="562.9230769230771" y1="120" x2="562.9230769230771" y2="592" stroke="#222"></line><line x1="535.5384615384618" y1="120" x2="535.5384615384618" y2="592" stroke="#222"></line><line x1="508.1538461538464" y1="120" x2="508.1538461538464" y2="592" stroke="#222"></line><line x1="480.76923076923106" y1="120" x2="480.76923076923106" y2="592" stroke="#222"></line><line x1="453.3846153846157" y1="120" x2="453.3846153846157" y2="592" stroke="#222"></line><line x1="426.00000000000034" y1="120" x2="426.00000000000034" y2="592" stroke="#222"></line><text x="783" y="244.4" font-size="8" font-family="'I.Ming', 'Source Han Serif KR', 'Noto Serif CJK KR', serif" fill="#222">問</text><text x="783" y="259.4" font-size="8" font-family="'I.Ming', 'Source Han Serif KR', 'Noto Serif CJK KR', serif" fill="#222">天</text><text x="783" y="274.4" font-size="8" font-family="'I.Ming', 'Source Han Serif KR', 'Noto Serif CJK KR', serif" fill="#222">地</text><text x="783" y="289.4" font-size="8" font-family="'I.Ming', 'Source Han Serif KR', 'Noto Serif CJK KR', serif" fill="#222">好</text><text x="783" y="304.4" font-size="8" font-family="'I.Ming', 'Source Han Serif KR', 'Noto Serif CJK KR', serif" fill="#222">在</text><text x="783" y="480.4" font-size="8" font-family="'I.Ming', 'Source Han Serif KR', 'Noto Serif CJK KR', serif" fill="#222">一</text><text x="758.6153846153846" y="138" font-size="20" font-family="'I.Ming', 'Source Han Serif KR', 'Noto Serif CJK KR', serif" fill="#222" wy-data="吾">吾</text><text x="758.6153846153846" y="156" font-size="20" font-family="'I.Ming', 'Source Han Serif KR', 'Noto Serif CJK KR', serif" fill="#222" wy-data="有">有</text><text x="758.6153846153846" y="174" font-size="20" font-family="'I.Ming', 'Source Han Serif KR', 'Noto Serif CJK KR', serif" fill="#872" wy-data="一">一</text><text x="758.6153846153846" y="192" font-size="20" font-family="'I.Ming', 'Source Han Serif KR', 'Noto Serif CJK KR', serif" fill="#222" wy-data="言">言</text><circle cx="779" cy="192" r="2.5714285714285716" stroke="#E53" fill="none" stroke-width="1" wy-data="。"></circle><text x="758.6153846153846" y="210" font-size="20" font-family="'I.Ming', 'Source Han Serif KR', 'Noto Serif CJK KR', serif" fill="#222" wy-data="曰">曰</text><path d="M754.6153846153846 221.25 L760.0923076923077 216.75 L776.5230769230769 216.75 L782 221.25" stroke="#222" fill="none" stroke-width="0.5" wy-data="「"></path><path d="M754.6153846153846 230.25 L760.0923076923077 225.75 L776.5230769230769 225.75 L782 230.25" stroke="#222" fill="none" stroke-width="0.5" wy-data="「"></path><text x="758.6153846153846" y="246" font-size="20" font-family="'I.Ming', 'Source Han Serif KR', 'Noto Serif CJK KR', serif" fill="#248" wy-data="H">H</text><text x="758.6153846153846" y="264" font-size="20" font-family="'I.Ming', 'Source Han Serif KR', 'Noto Serif CJK KR', serif" fill="#248" wy-data="e">e</text><text x="758.6153846153846" y="282" font-size="20" font-family="'I.Ming', 'Source Han Serif KR', 'Noto Serif CJK KR', serif" fill="#248" wy-data="l">l</text><text x="758.6153846153846" y="300" font-size="20" font-family="'I.Ming', 'Source Han Serif KR', 'Noto Serif CJK KR', serif" fill="#248" wy-data="l">l</text><text x="758.6153846153846" y="318" font-size="20" font-family="'I.Ming', 'Source Han Serif KR', 'Noto Serif CJK KR', serif" fill="#248" wy-data="o">o</text><text x="758.6153846153846" y="336" font-size="20" font-family="'I.Ming', 'Source Han Serif KR', 'Noto Serif CJK KR', serif" fill="#248" wy-data=",">,</text><text x="758.6153846153846" y="354" font-size="20" font-family="'I.Ming', 'Source Han Serif KR', 'Noto Serif CJK KR', serif" fill="#248" wy-data="w">w</text><text x="758.6153846153846" y="372" font-size="20" font-family="'I.Ming', 'Source Han Serif KR', 'Noto Serif CJK KR', serif" fill="#248" wy-data="o">o</text><text x="758.6153846153846" y="390" font-size="20" font-family="'I.Ming', 'Source Han Serif KR', 'Noto Serif CJK KR', serif" fill="#248" wy-data="r">r</text><text x="758.6153846153846" y="408" font-size="20" font-family="'I.Ming', 'Source Han Serif KR', 'Noto Serif CJK KR', serif" fill="#248" wy-data="l">l</text><text x="758.6153846153846" y="426" font-size="20" font-family="'I.Ming', 'Source Han Serif KR', 'Noto Serif CJK KR', serif" fill="#248" wy-data="d">d</text><text x="758.6153846153846" y="444" font-size="20" font-family="'I.Ming', 'Source Han Serif KR', 'Noto Serif CJK KR', serif" fill="#248" wy-data="!">!</text><path d="M754.6153846153846 448.5 L760.0923076923077 453 L776.5230769230769 453 L782 448.5" stroke="#222" fill="none" stroke-width="0.5" wy-data="」"></path><path d="M754.6153846153846 457.5 L760.0923076923077 462 L776.5230769230769 462 L782 457.5" stroke="#222" fill="none" stroke-width="0.5" wy-data="」"></path><circle cx="779" cy="462" r="2.5714285714285716" stroke="#E53" fill="none" stroke-width="1" wy-data="。"></circle><text x="758.6153846153846" y="480" font-size="20" font-family="'I.Ming', 'Source Han Serif KR', 'Noto Serif CJK KR', serif" fill="#222" wy-data="名">名</text><text x="758.6153846153846" y="498" font-size="20" font-family="'I.Ming', 'Source Han Serif KR', 'Noto Serif CJK KR', serif" fill="#222" wy-data="之">之</text><text x="758.6153846153846" y="516" font-size="20" font-family="'I.Ming', 'Source Han Serif KR', 'Noto Serif CJK KR', serif" fill="#222" wy-data="曰">曰</text><path d="M754.6153846153846 527.25 L760.0923076923077 522.75 L776.5230769230769 522.75 L782 527.25" stroke="#222" fill="none" stroke-width="0.5" wy-data="「"></path><text x="758.6153846153846" y="543" font-size="20" font-family="'I.Ming', 'Source Han Serif KR', 'Noto Serif CJK KR', serif" fill="#248" wy-data="問">問</text><text x="758.6153846153846" y="561" font-size="20" font-family="'I.Ming', 'Source Han Serif KR', 'Noto Serif CJK KR', serif" fill="#248" wy-data="天">天</text><text x="758.6153846153846" y="579" font-size="20" font-family="'I.Ming', 'Source Han Serif KR', 'Noto Serif CJK KR', serif" fill="#248" wy-data="地">地</text><text x="731.2307692307693" y="138" font-size="20" font-family="'I.Ming', 'Source Han Serif KR', 'Noto Serif CJK KR', serif" fill="#248" wy-data="好">好</text><text x="731.2307692307693" y="156" font-size="20" font-family="'I.Ming', 'Source Han Serif KR', 'Noto Serif CJK KR', serif" fill="#248" wy-data="在">在</text><path d="M727.2307692307693 160.5 L732.7076923076924 165 L749.1384615384616 165 L754.6153846153846 160.5" stroke="#222" fill="none" stroke-width="0.5" wy-data="」"></path><circle cx="751.6153846153846" cy="165" r="2.5714285714285716" stroke="#E53" fill="none" stroke-width="1" wy-data="。"></circle><text x="731.2307692307693" y="183" font-size="20" font-family="'I.Ming', 'Source Han Serif KR', 'Noto Serif CJK KR', serif" fill="#222" wy-data="夫">夫</text><path d="M727.2307692307693 194.25 L732.7076923076924 189.75 L749.1384615384616 189.75 L754.6153846153846 194.25" stroke="#222" fill="none" stroke-width="0.5" wy-data="「"></path><text x="731.2307692307693" y="210" font-size="20" font-family="'I.Ming', 'Source Han Serif KR', 'Noto Serif CJK KR', serif" fill="#248" wy-data="問">問</text><text x="731.2307692307693" y="228" font-size="20" font-family="'I.Ming', 'Source Han Serif KR', 'Noto Serif CJK KR', serif" fill="#248" wy-data="天">天</text><text x="731.2307692307693" y="246" font-size="20" font-family="'I.Ming', 'Source Han Serif KR', 'Noto Serif CJK KR', serif" fill="#248" wy-data="地">地</text><text x="731.2307692307693" y="264" font-size="20" font-family="'I.Ming', 'Source Han Serif KR', 'Noto Serif CJK KR', serif" fill="#248" wy-data="好">好</text><text x="731.2307692307693" y="282" font-size="20" font-family="'I.Ming', 'Source Han Serif KR', 'Noto Serif CJK KR', serif" fill="#248" wy-data="在">在</text><path d="M727.2307692307693 286.5 L732.7076923076924 291 L749.1384615384616 291 L754.6153846153846 286.5" stroke="#222" fill="none" stroke-width="0.5" wy-data="」"></path><circle cx="751.6153846153846" cy="291" r="2.5714285714285716" stroke="#E53" fill="none" stroke-width="1" wy-data="。"></circle><text x="731.2307692307693" y="309" font-size="20" font-family="'I.Ming', 'Source Han Serif KR', 'Noto Serif CJK KR', serif" fill="#222" wy-data="書">書</text><text x="731.2307692307693" y="327" font-size="20" font-family="'I.Ming', 'Source Han Serif KR', 'Noto Serif CJK KR', serif" fill="#222" wy-data="之">之</text><circle cx="751.6153846153846" cy="327" r="2.5714285714285716" stroke="#E53" fill="none" stroke-width="1" wy-data="。"></circle></svg>